# xmcd
#
# Track frame offsets:
#	150
#	1459
#	16384
#	34846
#	44718
#	58334
#	73086
#	86670
#	99190
#	117272
#	131303
#	144946
#	169841
#	186398
#
# Disc length: 2683 seconds
# Revision: 1
# Processed by: cddbd v1.5.2PL0 Copyright (c) Steve Scherf et al.
# Submitted via: dBpowerAMP V12.0
#
DISCID=c20a790e
DTITLE=Various Artist - Vintage Drifter - Live in Los Angeles, 1979
DYEAR=2018
DGENRE=Bluegrass
TTITLE0=Nancy Covey - Introduction
TTITLE1=The Cache Valley Drifters - Hubbin' It
TTITLE2=The Cache Valley Drifters - Shout Wahey
TTITLE3=The Cache Valley Drifters - 1001 Sleepless Nights
TTITLE4=The Cache Valley Drifters - Meegan's Reel
TTITLE5=The Cache Valley Drifters - The Devil and the Deep Blue Sea
TTITLE6=The Cache Valley Drifters - Blues for Dixie
TTITLE7=The Cache Valley Drifters - I'm Satisfied With You
TTITLE8=The Cache Valley Drifters - Barbados
TTITLE9=The Cache Valley Drifters - I've Got a New Road Under My Wheels
TTITLE10=The Cache Valley Drifters - A Smooth One
TTITLE11=The Cache Valley Drifters - Bay of Fundy
TTITLE12=The Cache Valley Drifters - Limehouse Blues
TTITLE13=The Cache Valley Drifters - Barnyard Boogie
EXTD=
EXTT0=
EXTT1=
EXTT2=
EXTT3=
EXTT4=
EXTT5=
EXTT6=
EXTT7=
EXTT8=
EXTT9=
EXTT10=
EXTT11=
EXTT12=
EXTT13=
PLAYORDER=
